<svg width="48" height="49" viewBox="0 0 48 49" fill="none" xmlns="http://www.w3.org/2000/svg">
<path d="M30.7201 4.80099L46.8025 34.5639C49.1137 38.8386 47.9785 44.4626 44.2657 47.124C43.0196 48.0205 41.5671 48.4983 40.0825 48.5H7.91522C3.54481 48.5 0 44.42 0 39.3826C0 37.6786 0.415201 36.0119 1.1952 34.5639L17.28 4.80099C19.5889 0.526289 24.4705 -0.783054 28.1833 1.8783C29.2105 2.61431 30.0793 3.61431 30.7201 4.80099ZM25.3921 7.03834C25.0983 6.82836 24.7692 6.68673 24.4247 6.62201C24.0803 6.55729 23.7276 6.57083 23.388 6.6618C23.0484 6.75278 22.7289 6.9193 22.4488 7.15131C22.1687 7.38332 21.9339 7.676 21.7585 8.01168L5.67602 37.7799C5.41477 38.265 5.27707 38.8199 5.27761 39.3853C5.27761 41.0653 6.45842 42.4253 7.91762 42.4253H40.0801C40.5745 42.4253 41.0569 42.2653 41.4745 41.9666C42.0738 41.5242 42.4963 40.842 42.6541 40.0621C42.8119 39.2822 42.6929 38.4647 42.3217 37.7799L26.2393 8.01168C26.0283 7.61974 25.7393 7.28676 25.3945 7.03834H25.3921ZM24.0001 37.8332C23.3635 37.8332 22.7531 37.5523 22.303 37.0522C21.8529 36.5521 21.6001 35.8738 21.6001 35.1666C21.6001 34.4593 21.8529 33.781 22.303 33.2809C22.7531 32.7808 23.3635 32.4999 24.0001 32.4999C24.6366 32.4999 25.247 32.7808 25.6971 33.2809C26.1472 33.781 26.4001 34.4593 26.4001 35.1666C26.4001 35.8738 26.1472 36.5521 25.6971 37.0522C25.247 37.5523 24.6366 37.8332 24.0001 37.8332ZM24.0001 13.8331C24.6366 13.8331 25.247 14.114 25.6971 14.6141C26.1472 15.1142 26.4001 15.7925 26.4001 16.4997V27.1665C26.4001 27.8737 26.1472 28.552 25.6971 29.0521C25.247 29.5522 24.6366 29.8332 24.0001 29.8332C23.3635 29.8332 22.7531 29.5522 22.303 29.0521C21.8529 28.552 21.6001 27.8737 21.6001 27.1665V16.4997C21.6001 15.7925 21.8529 15.1142 22.303 14.6141C22.7531 14.114 23.3635 13.8331 24.0001 13.8331Z" fill="#FAFAFA"/>
</svg>
